<svg width="100" height="100" viewBox="0 0 100 100" fill="none" xmlns="http://www.w3.org/2000/svg">
<g clip-path="url(#clip0_111_433)">
<rect width="100" height="100" rx="50" fill="#46A5FD"/>
<path d="M82.4901 39.7344H66.9361C66.652 37.7221 66.072 35.9347 65.196 34.3722C64.3201 32.786 63.1956 31.4366 61.8224 30.3239C60.4493 29.2112 58.8632 28.3589 57.0639 27.767C55.2884 27.1752 53.3589 26.8793 51.2756 26.8793C47.5114 26.8793 44.2325 27.8144 41.4389 29.6847C38.6454 31.5312 36.4792 34.2301 34.9403 37.7812C33.4015 41.3087 32.6321 45.5937 32.6321 50.6364C32.6321 55.821 33.4015 60.1771 34.9403 63.7045C36.5028 67.232 38.6809 69.8954 41.4744 71.6946C44.268 73.4938 47.4995 74.3935 51.169 74.3935C53.2287 74.3935 55.1345 74.1212 56.8864 73.5767C58.6619 73.0322 60.2363 72.2391 61.6094 71.1974C62.9825 70.1321 64.1188 68.8419 65.0185 67.3267C65.9418 65.8116 66.581 64.0833 66.9361 62.142L82.4901 62.2131C82.0876 65.5511 81.0814 68.7708 79.4716 71.8722C77.8854 74.9498 75.7429 77.7079 73.044 80.1463C70.3688 82.5611 67.1728 84.4787 63.456 85.8991C59.7628 87.2959 55.5843 87.9943 50.9205 87.9943C44.4337 87.9943 38.6335 86.5265 33.5199 83.5909C28.4299 80.6553 24.4053 76.4058 21.446 70.8423C18.5104 65.2789 17.0426 58.5436 17.0426 50.6364C17.0426 42.7055 18.5341 35.9583 21.517 30.3949C24.5 24.8314 28.5483 20.5937 33.6619 17.6818C38.7756 14.7462 44.5284 13.2784 50.9205 13.2784C55.1345 13.2784 59.0407 13.8703 62.6392 15.054C66.2614 16.2377 69.4692 17.9659 72.2628 20.2386C75.0563 22.4877 77.3291 25.2457 79.081 28.5128C80.8565 31.7798 81.9929 35.5204 82.4901 39.7344Z" fill="white"/>
</g>
<defs>
<clipPath id="clip0_111_433">
<rect width="100" height="100" rx="50" fill="white"/>
</clipPath>
</defs>
</svg>
