<svg width="1440" height="800" viewBox="0 0 1440 800" fill="none" xmlns="http://www.w3.org/2000/svg">
<g opacity="0.3" clip-path="url(#clip0_0_30)">
<path opacity="0.1" d="M1464 1208H-8V-15H1464V1208ZM-7.5584 1207.4H1463.56V-14.4019H-7.5584V1207.4Z" fill="#45D8FF"/>
<path opacity="0.1" d="M1463.71 799.868H-7.85278V800.466H1463.71V799.868Z" fill="#45D8FF"/>
<path opacity="0.1" d="M1463.71 775.942H-7.85278V776.541H1463.71V775.942Z" fill="#45D8FF"/>
<path opacity="0.1" d="M1463.71 752.017H-7.85278V752.615H1463.71V752.017Z" fill="#45D8FF"/>
<path opacity="0.1" d="M1463.71 728.091H-7.85278V728.689H1463.71V728.091Z" fill="#45D8FF"/>
<path opacity="0.1" d="M1463.71 728.091H-7.85278V728.689H1463.71V728.091Z" fill="#45D8FF"/>
<path opacity="0.1" d="M1463.71 728.091H-7.85278V728.689H1463.71V728.091Z" fill="#45D8FF"/>
<path opacity="0.1" d="M1463.71 728.091H-7.85278V728.689H1463.71V728.091Z" fill="#45D8FF"/>
<path opacity="0.1" d="M1463.71 728.091H-7.85278V728.689H1463.71V728.091Z" fill="#45D8FF"/>
<path opacity="0.1" d="M1463.71 728.091H-7.85278V728.689H1463.71V728.091Z" fill="#45D8FF"/>
<path opacity="0.1" d="M1463.71 704.166H-7.85278V704.764H1463.71V704.166Z" fill="#45D8FF"/>
<path opacity="0.1" d="M1463.71 680.04H-7.85278V680.639H1463.71V680.04Z" fill="#45D8FF"/>
<path opacity="0.1" d="M1463.71 656.115H-7.85278V656.713H1463.71V656.115Z" fill="#45D8FF"/>
<path opacity="0.1" d="M1463.71 632.189H-7.85278V632.787H1463.71V632.189Z" fill="#45D8FF"/>
<path opacity="0.1" d="M1463.71 632.189H-7.85278V632.787H1463.71V632.189Z" fill="#45D8FF"/>
<path opacity="0.1" d="M1463.71 632.189H-7.85278V632.787H1463.71V632.189Z" fill="#45D8FF"/>
<path opacity="0.1" d="M1463.71 632.189H-7.85278V632.787H1463.71V632.189Z" fill="#45D8FF"/>
<path opacity="0.1" d="M1463.71 632.189H-7.85278V632.787H1463.71V632.189Z" fill="#45D8FF"/>
<path opacity="0.1" d="M1463.71 632.189H-7.85278V632.787H1463.71V632.189Z" fill="#45D8FF"/>
<path opacity="0.1" d="M1463.71 608.263H-7.85278V608.862H1463.71V608.263Z" fill="#45D8FF"/>
<path opacity="0.1" d="M1463.71 584.338H-7.85278V584.936H1463.71V584.338Z" fill="#45D8FF"/>
<path opacity="0.1" d="M1463.71 560.213H-7.85278V560.811H1463.71V560.213Z" fill="#45D8FF"/>
<path opacity="0.1" d="M1463.71 536.287H-7.85278V536.885H1463.71V536.287Z" fill="#45D8FF"/>
<path opacity="0.1" d="M1463.71 536.287H-7.85278V536.885H1463.71V536.287Z" fill="#45D8FF"/>
<path opacity="0.1" d="M1463.71 536.287H-7.85278V536.885H1463.71V536.287Z" fill="#45D8FF"/>
<path opacity="0.1" d="M1463.71 536.287H-7.85278V536.885H1463.71V536.287Z" fill="#45D8FF"/>
<path opacity="0.1" d="M1463.71 536.287H-7.85278V536.885H1463.71V536.287Z" fill="#45D8FF"/>
<path opacity="0.1" d="M1463.71 536.287H-7.85278V536.885H1463.71V536.287Z" fill="#45D8FF"/>
<path opacity="0.1" d="M1463.71 512.361H-7.85278V512.96H1463.71V512.361Z" fill="#45D8FF"/>
<path opacity="0.1" d="M1463.71 488.436H-7.85278V489.034H1463.71V488.436Z" fill="#45D8FF"/>
<path opacity="0.1" d="M1463.71 464.311H-7.85278V464.909H1463.71V464.311Z" fill="#45D8FF"/>
<path opacity="0.1" d="M1463.71 440.385H-7.85278V440.983H1463.71V440.385Z" fill="#45D8FF"/>
<path opacity="0.1" d="M1463.71 440.385H-7.85278V440.983H1463.71V440.385Z" fill="#45D8FF"/>
<path opacity="0.1" d="M1463.71 440.385H-7.85278V440.983H1463.71V440.385Z" fill="#45D8FF"/>
<path opacity="0.1" d="M1463.71 440.385H-7.85278V440.983H1463.71V440.385Z" fill="#45D8FF"/>
<path opacity="0.1" d="M1463.71 440.385H-7.85278V440.983H1463.71V440.385Z" fill="#45D8FF"/>
<path opacity="0.1" d="M1463.71 440.385H-7.85278V440.983H1463.71V440.385Z" fill="#45D8FF"/>
<path opacity="0.1" d="M1463.71 416.459H-7.85278V417.058H1463.71V416.459Z" fill="#45D8FF"/>
<path opacity="0.1" d="M1463.71 392.534H-7.85278V393.132H1463.71V392.534Z" fill="#45D8FF"/>
<path opacity="0.1" d="M1463.71 368.608H-7.85278V369.206H1463.71V368.608Z" fill="#45D8FF"/>
<path opacity="0.1" d="M1463.71 344.483H-7.85278V345.081H1463.71V344.483Z" fill="#45D8FF"/>
<path opacity="0.1" d="M1463.71 344.483H-7.85278V345.081H1463.71V344.483Z" fill="#45D8FF"/>
<path opacity="0.1" d="M1463.71 344.483H-7.85278V345.081H1463.71V344.483Z" fill="#45D8FF"/>
<path opacity="0.1" d="M1463.71 344.483H-7.85278V345.081H1463.71V344.483Z" fill="#45D8FF"/>
<path opacity="0.1" d="M1463.71 344.483H-7.85278V345.081H1463.71V344.483Z" fill="#45D8FF"/>
<path opacity="0.1" d="M1463.71 344.483H-7.85278V345.081H1463.71V344.483Z" fill="#45D8FF"/>
<path opacity="0.1" d="M1463.71 320.557H-7.85278V321.156H1463.71V320.557Z" fill="#45D8FF"/>
<path opacity="0.1" d="M1463.71 296.632H-7.85278V297.23H1463.71V296.632Z" fill="#45D8FF"/>
<path opacity="0.1" d="M1463.71 272.706H-7.85278V273.304H1463.71V272.706Z" fill="#45D8FF"/>
<path opacity="0.1" d="M1463.71 248.581H-7.85278V249.179H1463.71V248.581Z" fill="#45D8FF"/>
<path opacity="0.1" d="M1463.71 248.581H-7.85278V249.179H1463.71V248.581Z" fill="#45D8FF"/>
<path opacity="0.1" d="M1463.71 248.581H-7.85278V249.179H1463.71V248.581Z" fill="#45D8FF"/>
<path opacity="0.1" d="M1463.71 248.581H-7.85278V249.179H1463.71V248.581Z" fill="#45D8FF"/>
<path opacity="0.1" d="M1463.71 248.581H-7.85278V249.179H1463.71V248.581Z" fill="#45D8FF"/>
<path opacity="0.1" d="M1463.71 248.581H-7.85278V249.179H1463.71V248.581Z" fill="#45D8FF"/>
<path opacity="0.1" d="M1463.71 224.655H-7.85278V225.254H1463.71V224.655Z" fill="#45D8FF"/>
<path opacity="0.1" d="M1463.71 200.73H-7.85278V201.328H1463.71V200.73Z" fill="#45D8FF"/>
<path opacity="0.1" d="M1463.71 176.804H-7.85278V177.402H1463.71V176.804Z" fill="#45D8FF"/>
<path opacity="0.1" d="M1463.71 152.878H-7.85278V153.477H1463.71V152.878Z" fill="#45D8FF"/>
<path opacity="0.1" d="M1463.71 152.878H-7.85278V153.477H1463.71V152.878Z" fill="#45D8FF"/>
<path opacity="0.1" d="M1463.71 152.878H-7.85278V153.477H1463.71V152.878Z" fill="#45D8FF"/>
<path opacity="0.1" d="M1463.71 152.878H-7.85278V153.477H1463.71V152.878Z" fill="#45D8FF"/>
<path opacity="0.1" d="M1463.71 152.878H-7.85278V153.477H1463.71V152.878Z" fill="#45D8FF"/>
<path opacity="0.1" d="M1463.71 152.878H-7.85278V153.477H1463.71V152.878Z" fill="#45D8FF"/>
<path opacity="0.1" d="M1463.71 128.753H-7.85278V129.352H1463.71V128.753Z" fill="#45D8FF"/>
<path opacity="0.1" d="M1463.71 104.828H-7.85278V105.426H1463.71V104.828Z" fill="#45D8FF"/>
<path opacity="0.1" d="M1463.71 80.902H-7.85278V81.5001H1463.71V80.902Z" fill="#45D8FF"/>
<path opacity="0.1" d="M1463.71 56.9764H-7.85278V57.5745H1463.71V56.9764Z" fill="#45D8FF"/>
<path opacity="0.1" d="M1463.71 56.9764H-7.85278V57.5745H1463.71V56.9764Z" fill="#45D8FF"/>
<path opacity="0.1" d="M1463.71 56.9764H-7.85278V57.5745H1463.71V56.9764Z" fill="#45D8FF"/>
<path opacity="0.1" d="M1463.71 56.9764H-7.85278V57.5745H1463.71V56.9764Z" fill="#45D8FF"/>
<path opacity="0.1" d="M1463.71 56.9764H-7.85278V57.5745H1463.71V56.9764Z" fill="#45D8FF"/>
<path opacity="0.1" d="M1463.71 56.9764H-7.85278V57.5745H1463.71V56.9764Z" fill="#45D8FF"/>
<path opacity="0.1" d="M1463.71 32.8513H-7.85278V33.4495H1463.71V32.8513Z" fill="#45D8FF"/>
<path opacity="0.1" d="M1463.71 8.92566H-7.85278V9.5238H1463.71V8.92566Z" fill="#45D8FF"/>
<path opacity="0.1" d="M1435.15 -14.8006H1434.71V1207.6H1435.15V-14.8006Z" fill="#45D8FF"/>
<path opacity="0.1" d="M1406.3 -14.8006H1405.86V1207.6H1406.3V-14.8006Z" fill="#45D8FF"/>
<path opacity="0.1" d="M1377.45 -14.8006H1377V1207.6H1377.45V-14.8006Z" fill="#45D8FF"/>
<path opacity="0.1" d="M1377.45 -14.8006H1377V1207.6H1377.45V-14.8006Z" fill="#45D8FF"/>
<path opacity="0.1" d="M1377.45 -14.8006H1377V1207.6H1377.45V-14.8006Z" fill="#45D8FF"/>
<path opacity="0.1" d="M1377.45 -14.8006H1377V1207.6H1377.45V-14.8006Z" fill="#45D8FF"/>
<path opacity="0.1" d="M1377.45 -14.8006H1377V1207.6H1377.45V-14.8006Z" fill="#45D8FF"/>
<path opacity="0.1" d="M1377.45 -14.8006H1377V1207.6H1377.45V-14.8006Z" fill="#45D8FF"/>
<path opacity="0.1" d="M1348.6 -14.8006H1348.15V1207.6H1348.6V-14.8006Z" fill="#45D8FF"/>
<path opacity="0.1" d="M1319.74 -14.8006H1319.3V1207.6H1319.74V-14.8006Z" fill="#45D8FF"/>
<path opacity="0.1" d="M1290.89 -14.8006H1290.45V1207.6H1290.89V-14.8006Z" fill="#45D8FF"/>
<path opacity="0.1" d="M1262.04 -14.8006H1261.6V1207.6H1262.04V-14.8006Z" fill="#45D8FF"/>
<path opacity="0.1" d="M1262.04 -14.8006H1261.6V1207.6H1262.04V-14.8006Z" fill="#45D8FF"/>
<path opacity="0.1" d="M1262.04 -14.8006H1261.6V1207.6H1262.04V-14.8006Z" fill="#45D8FF"/>
<path opacity="0.1" d="M1262.04 -14.8006H1261.6V1207.6H1262.04V-14.8006Z" fill="#45D8FF"/>
<path opacity="0.1" d="M1262.04 -14.8006H1261.6V1207.6H1262.04V-14.8006Z" fill="#45D8FF"/>
<path opacity="0.1" d="M1262.04 -14.8006H1261.6V1207.6H1262.04V-14.8006Z" fill="#45D8FF"/>
<path opacity="0.1" d="M1233.19 -14.8006H1232.75V1207.6H1233.19V-14.8006Z" fill="#45D8FF"/>
<path opacity="0.1" d="M1204.34 -14.8006H1203.9V1207.6H1204.34V-14.8006Z" fill="#45D8FF"/>
<path opacity="0.1" d="M1175.49 -14.8006H1175.05V1207.6H1175.49V-14.8006Z" fill="#45D8FF"/>
<path opacity="0.1" d="M1146.64 -14.8006H1146.2V1207.6H1146.64V-14.8006Z" fill="#45D8FF"/>
<path opacity="0.1" d="M1146.64 -14.8006H1146.2V1207.6H1146.64V-14.8006Z" fill="#45D8FF"/>
<path opacity="0.1" d="M1146.64 -14.8006H1146.2V1207.6H1146.64V-14.8006Z" fill="#45D8FF"/>
<path opacity="0.1" d="M1146.64 -14.8006H1146.2V1207.6H1146.64V-14.8006Z" fill="#45D8FF"/>
<path opacity="0.1" d="M1146.64 -14.8006H1146.2V1207.6H1146.64V-14.8006Z" fill="#45D8FF"/>
<path opacity="0.1" d="M1146.64 -14.8006H1146.2V1207.6H1146.64V-14.8006Z" fill="#45D8FF"/>
<path opacity="0.1" d="M1117.79 -14.8006H1117.34V1207.6H1117.79V-14.8006Z" fill="#45D8FF"/>
<path opacity="0.1" d="M1088.93 -14.8006H1088.49V1207.6H1088.93V-14.8006Z" fill="#45D8FF"/>
<path opacity="0.1" d="M1060.08 -14.8006H1059.64V1207.6H1060.08V-14.8006Z" fill="#45D8FF"/>
<path opacity="0.1" d="M1031.23 -14.8006H1030.79V1207.6H1031.23V-14.8006Z" fill="#45D8FF"/>
<path opacity="0.1" d="M1031.23 -14.8006H1030.79V1207.6H1031.23V-14.8006Z" fill="#45D8FF"/>
<path opacity="0.1" d="M1031.23 -14.8006H1030.79V1207.6H1031.23V-14.8006Z" fill="#45D8FF"/>
<path opacity="0.1" d="M1031.23 -14.8006H1030.79V1207.6H1031.23V-14.8006Z" fill="#45D8FF"/>
<path opacity="0.1" d="M1031.23 -14.8006H1030.79V1207.6H1031.23V-14.8006Z" fill="#45D8FF"/>
<path opacity="0.1" d="M1031.23 -14.8006H1030.79V1207.6H1031.23V-14.8006Z" fill="#45D8FF"/>
<path opacity="0.1" d="M1002.38 -14.8006H1001.94V1207.6H1002.38V-14.8006Z" fill="#45D8FF"/>
<path opacity="0.1" d="M973.529 -14.8006H973.088V1207.6H973.529V-14.8006Z" fill="#45D8FF"/>
<path opacity="0.1" d="M944.678 -14.8006H944.237V1207.6H944.678V-14.8006Z" fill="#45D8FF"/>
<path opacity="0.1" d="M915.827 -14.8006H915.385V1207.6H915.827V-14.8006Z" fill="#45D8FF"/>
<path opacity="0.1" d="M915.827 -14.8006H915.385V1207.6H915.827V-14.8006Z" fill="#45D8FF"/>
<path opacity="0.1" d="M915.827 -14.8006H915.385V1207.6H915.827V-14.8006Z" fill="#45D8FF"/>
<path opacity="0.1" d="M915.827 -14.8006H915.385V1207.6H915.827V-14.8006Z" fill="#45D8FF"/>
<path opacity="0.1" d="M915.827 -14.8006H915.385V1207.6H915.827V-14.8006Z" fill="#45D8FF"/>
<path opacity="0.1" d="M915.827 -14.8006H915.385V1207.6H915.827V-14.8006Z" fill="#45D8FF"/>
<path opacity="0.1" d="M886.976 -14.8006H886.534V1207.6H886.976V-14.8006Z" fill="#45D8FF"/>
<path opacity="0.1" d="M858.125 -14.8006H857.683V1207.6H858.125V-14.8006Z" fill="#45D8FF"/>
<path opacity="0.1" d="M829.274 -14.8006H828.832V1207.6H829.274V-14.8006Z" fill="#45D8FF"/>
<path opacity="0.1" d="M800.423 -14.8006H799.981V1207.6H800.423V-14.8006Z" fill="#45D8FF"/>
<path opacity="0.1" d="M800.423 -14.8006H799.981V1207.6H800.423V-14.8006Z" fill="#45D8FF"/>
<path opacity="0.1" d="M800.423 -14.8006H799.981V1207.6H800.423V-14.8006Z" fill="#45D8FF"/>
<path opacity="0.1" d="M800.423 -14.8006H799.981V1207.6H800.423V-14.8006Z" fill="#45D8FF"/>
<path opacity="0.1" d="M800.423 -14.8006H799.981V1207.6H800.423V-14.8006Z" fill="#45D8FF"/>
<path opacity="0.1" d="M800.423 -14.8006H799.981V1207.6H800.423V-14.8006Z" fill="#45D8FF"/>
<path opacity="0.1" d="M771.571 -14.8006H771.13V1207.6H771.571V-14.8006Z" fill="#45D8FF"/>
<path opacity="0.1" d="M742.72 -14.8006H742.278V1207.6H742.72V-14.8006Z" fill="#45D8FF"/>
<path opacity="0.1" d="M713.869 -14.8006H713.427V1207.6H713.869V-14.8006Z" fill="#45D8FF"/>
<path opacity="0.1" d="M685.018 -14.8006H684.576V1207.6H685.018V-14.8006Z" fill="#45D8FF"/>
<path opacity="0.1" d="M685.018 -14.8006H684.576V1207.6H685.018V-14.8006Z" fill="#45D8FF"/>
<path opacity="0.1" d="M685.018 -14.8006H684.576V1207.6H685.018V-14.8006Z" fill="#45D8FF"/>
<path opacity="0.1" d="M685.018 -14.8006H684.576V1207.6H685.018V-14.8006Z" fill="#45D8FF"/>
<path opacity="0.1" d="M685.018 -14.8006H684.576V1207.6H685.018V-14.8006Z" fill="#45D8FF"/>
<path opacity="0.1" d="M685.018 -14.8006H684.576V1207.6H685.018V-14.8006Z" fill="#45D8FF"/>
<path opacity="0.1" d="M656.166 -14.8006H655.725V1207.6H656.166V-14.8006Z" fill="#45D8FF"/>
<path opacity="0.1" d="M627.315 -14.8006H626.874V1207.6H627.315V-14.8006Z" fill="#45D8FF"/>
<path opacity="0.1" d="M598.464 -14.8006H598.022V1207.6H598.464V-14.8006Z" fill="#45D8FF"/>
<path opacity="0.1" d="M569.613 -14.8006H569.171V1207.6H569.613V-14.8006Z" fill="#45D8FF"/>
<path opacity="0.1" d="M569.613 -14.8006H569.171V1207.6H569.613V-14.8006Z" fill="#45D8FF"/>
<path opacity="0.1" d="M569.613 -14.8006H569.171V1207.6H569.613V-14.8006Z" fill="#45D8FF"/>
<path opacity="0.1" d="M569.613 -14.8006H569.171V1207.6H569.613V-14.8006Z" fill="#45D8FF"/>
<path opacity="0.1" d="M569.613 -14.8006H569.171V1207.6H569.613V-14.8006Z" fill="#45D8FF"/>
<path opacity="0.1" d="M569.442 -15H569V1207.4H569.442V-15Z" fill="#45D8FF"/>
<path opacity="0.1" d="M540.762 -14.8006H540.32V1207.6H540.762V-14.8006Z" fill="#45D8FF"/>
<path opacity="0.1" d="M511.763 -14.8006H511.322V1207.6H511.763V-14.8006Z" fill="#45D8FF"/>
<path opacity="0.1" d="M482.912 -14.8006H482.47V1207.6H482.912V-14.8006Z" fill="#45D8FF"/>
<path opacity="0.1" d="M454.061 -14.8006H453.619V1207.6H454.061V-14.8006Z" fill="#45D8FF"/>
<path opacity="0.1" d="M454.061 -14.8006H453.619V1207.6H454.061V-14.8006Z" fill="#45D8FF"/>
<path opacity="0.1" d="M454.061 -14.8006H453.619V1207.6H454.061V-14.8006Z" fill="#45D8FF"/>
<path opacity="0.1" d="M454.061 -14.8006H453.619V1207.6H454.061V-14.8006Z" fill="#45D8FF"/>
<path opacity="0.1" d="M454.061 -14.8006H453.619V1207.6H454.061V-14.8006Z" fill="#45D8FF"/>
<path opacity="0.1" d="M454.061 -14.8006H453.619V1207.6H454.061V-14.8006Z" fill="#45D8FF"/>
<path opacity="0.1" d="M425.21 -14.8006H424.768V1207.6H425.21V-14.8006Z" fill="#45D8FF"/>
<path opacity="0.1" d="M396.358 -14.8006H395.917V1207.6H396.358V-14.8006Z" fill="#45D8FF"/>
<path opacity="0.1" d="M367.507 -14.8006H367.066V1207.6H367.507V-14.8006Z" fill="#45D8FF"/>
<path opacity="0.1" d="M338.656 -14.8006H338.214V1207.6H338.656V-14.8006Z" fill="#45D8FF"/>
<path opacity="0.1" d="M338.656 -14.8006H338.214V1207.6H338.656V-14.8006Z" fill="#45D8FF"/>
<path opacity="0.1" d="M338.656 -14.8006H338.214V1207.6H338.656V-14.8006Z" fill="#45D8FF"/>
<path opacity="0.1" d="M338.656 -14.8006H338.214V1207.6H338.656V-14.8006Z" fill="#45D8FF"/>
<path opacity="0.1" d="M338.656 -14.8006H338.214V1207.6H338.656V-14.8006Z" fill="#45D8FF"/>
<path opacity="0.1" d="M338.656 -14.8006H338.214V1207.6H338.656V-14.8006Z" fill="#45D8FF"/>
<path opacity="0.1" d="M309.805 -14.8006H309.363V1207.6H309.805V-14.8006Z" fill="#45D8FF"/>
<path opacity="0.1" d="M280.954 -14.8006H280.512V1207.6H280.954V-14.8006Z" fill="#45D8FF"/>
<path opacity="0.1" d="M252.102 -14.8006H251.661V1207.6H252.102V-14.8006Z" fill="#45D8FF"/>
<path opacity="0.1" d="M223.251 -14.8006H222.81V1207.6H223.251V-14.8006Z" fill="#45D8FF"/>
<path opacity="0.1" d="M223.251 -14.8006H222.81V1207.6H223.251V-14.8006Z" fill="#45D8FF"/>
<path opacity="0.1" d="M223.251 -14.8006H222.81V1207.6H223.251V-14.8006Z" fill="#45D8FF"/>
<path opacity="0.1" d="M223.251 -14.8006H222.81V1207.6H223.251V-14.8006Z" fill="#45D8FF"/>
<path opacity="0.1" d="M223.251 -14.8006H222.81V1207.6H223.251V-14.8006Z" fill="#45D8FF"/>
<path opacity="0.1" d="M223.251 -14.8006H222.81V1207.6H223.251V-14.8006Z" fill="#45D8FF"/>
<path opacity="0.1" d="M194.4 -14.8006H193.958V1207.6H194.4V-14.8006Z" fill="#45D8FF"/>
<path opacity="0.1" d="M165.549 -14.8006H165.107V1207.6H165.549V-14.8006Z" fill="#45D8FF"/>
<path opacity="0.1" d="M136.698 -14.8006H136.256V1207.6H136.698V-14.8006Z" fill="#45D8FF"/>
<path opacity="0.1" d="M107.846 -14.8006H107.405V1207.6H107.846V-14.8006Z" fill="#45D8FF"/>
<path opacity="0.1" d="M107.846 -14.8006H107.405V1207.6H107.846V-14.8006Z" fill="#45D8FF"/>
<path opacity="0.1" d="M107.846 -14.8006H107.405V1207.6H107.846V-14.8006Z" fill="#45D8FF"/>
<path opacity="0.1" d="M107.846 -14.8006H107.405V1207.6H107.846V-14.8006Z" fill="#45D8FF"/>
<path opacity="0.1" d="M107.846 -14.8006H107.405V1207.6H107.846V-14.8006Z" fill="#45D8FF"/>
<path opacity="0.1" d="M107.846 -14.8006H107.405V1207.6H107.846V-14.8006Z" fill="#45D8FF"/>
<path opacity="0.1" d="M107.846 -14.8006H107.405V1207.6H107.846V-14.8006Z" fill="#45D8FF"/>
<path opacity="0.1" d="M78.9952 -14.8006H78.5536V1207.6H78.9952V-14.8006Z" fill="#45D8FF"/>
<path opacity="0.1" d="M50.144 -14.8006H49.7024V1207.6H50.144V-14.8006Z" fill="#45D8FF"/>
<path opacity="0.1" d="M21.2928 -14.8006H20.8512V1207.6H21.2928V-14.8006Z" fill="#45D8FF"/>
</g>
<defs>
<clipPath id="clip0_0_30">
<rect width="1472" height="1223" fill="white" transform="translate(-8 -15)"/>
</clipPath>
</defs>
</svg>
