<svg width="441" height="447" viewBox="0 0 441 447" fill="none" xmlns="http://www.w3.org/2000/svg">
<path d="M306.768 65.5171L308.084 68.779C308.725 70.3673 306.851 71.7811 305.5 70.7289L302.724 68.5693C302.252 68.2021 301.621 68.1138 301.066 68.3369L297.805 69.6529C296.217 70.294 294.802 68.4198 295.854 67.0683L298.015 64.2931C298.382 63.8218 298.47 63.1901 298.246 62.6354L296.931 59.3743C296.29 57.786 298.163 56.3722 299.515 57.4244L302.29 59.5832C302.762 59.9512 303.394 60.0395 303.948 59.8157L307.21 58.499C308.798 57.8579 310.213 59.7321 309.16 61.0836L306.999 63.8594C306.633 64.3315 306.544 64.9632 306.768 65.5171Z" fill="#2C3447"/>
<path d="M126.02 19.0513L127.927 23.7811C128.855 26.0844 126.139 28.1342 124.179 26.6092L120.154 23.4776C119.471 22.945 118.556 22.8171 117.752 23.1409L113.023 25.0493C110.719 25.978 108.669 23.2624 110.195 21.3017L113.327 17.2772C113.859 16.5934 113.987 15.6788 113.663 14.8752L111.755 10.146C110.826 7.84196 113.542 5.7921 115.503 7.31789L119.528 10.449C120.212 10.9815 121.126 11.1094 121.93 10.7848L126.658 8.8778C128.962 7.94836 131.012 10.6639 129.487 12.6254L126.355 16.6485C125.823 17.3331 125.695 18.2477 126.02 19.0513Z" fill="#2C3447"/>
<path d="M154.946 389.442L153.43 386.269C152.69 384.724 154.472 383.196 155.886 384.161L158.792 386.143C159.285 386.48 159.921 386.529 160.461 386.271L163.633 384.754C165.179 384.015 166.707 385.797 165.742 387.212L163.759 390.117C163.422 390.61 163.374 391.246 163.632 391.785L165.148 394.958C165.887 396.503 164.106 398.031 162.691 397.066L159.786 395.085C159.292 394.747 158.656 394.698 158.118 394.956L154.944 396.474C153.399 397.213 151.87 395.431 152.836 394.017L154.819 391.111C155.156 390.617 155.204 389.981 154.946 389.442Z" fill="#2C3447"/>
<path d="M318.825 91.7008C318.825 87.8697 315.719 84.7627 311.887 84.7627C308.056 84.7627 304.949 87.8697 304.949 91.7008C304.949 95.532 308.056 98.639 311.887 98.639C315.719 98.639 318.825 95.532 318.825 91.7008Z" fill="#2C3447"/>
<path d="M379.256 217.873C379.256 216.316 377.994 215.056 376.439 215.056C374.884 215.056 373.622 216.316 373.622 217.873C373.622 219.429 374.884 220.69 376.439 220.69C377.994 220.69 379.256 219.429 379.256 217.873Z" fill="#2C3447"/>
<path d="M190.968 435.712C190.968 429.703 186.096 424.832 180.088 424.832C174.078 424.832 169.207 429.703 169.207 435.712C169.207 441.721 174.078 446.592 180.088 446.592C186.096 446.592 190.968 441.721 190.968 435.712Z" fill="#2C3447"/>
<path d="M218.152 428.272C218.152 425.923 216.247 424.019 213.897 424.019C211.547 424.019 209.642 425.923 209.642 428.272C209.642 430.622 211.547 432.526 213.897 432.526C216.247 432.526 218.152 430.622 218.152 428.272Z" fill="#2C3447"/>
<path d="M224.003 50.2819C220.998 53.2628 220.979 58.1158 223.96 61.1204C226.941 64.125 231.793 64.143 234.798 61.1621C237.802 58.1812 237.82 53.3292 234.84 50.3246C231.859 47.3199 227.007 47.301 224.003 50.2819Z" fill="#2C3447"/>
<path d="M391.755 276.383C389.761 278.363 389.747 281.584 391.726 283.579C393.705 285.573 396.927 285.587 398.922 283.607C400.917 281.627 400.93 278.408 398.95 276.411C396.971 274.417 393.749 274.404 391.755 276.383Z" fill="#2C3447"/>
<path d="M194.969 23.313C193.301 24.9679 193.29 27.6616 194.946 29.3298C196.601 30.998 199.294 31.0084 200.962 29.3535C202.63 27.6986 202.642 25.0058 200.987 23.3376C199.332 21.6694 196.638 21.6581 194.969 23.313Z" fill="#2C3447"/>
<path d="M51.9597 258.963C45.9637 259.364 41.4293 264.55 41.8292 270.545C42.2311 276.541 47.4177 281.076 53.4127 280.674C59.4087 280.272 63.9441 275.089 63.5432 269.093C63.1413 263.096 57.9547 258.561 51.9597 258.963Z" fill="#2C3447"/>
<path d="M18.0605 182.83C15.7156 182.987 13.9422 185.015 14.0996 187.359C14.2559 189.704 16.2843 191.477 18.6292 191.32C20.9732 191.163 22.7457 189.136 22.5893 186.792C22.432 184.448 20.4055 182.673 18.0605 182.83Z" fill="#2C3447"/>
<path d="M85.3701 77.1049L22.4757 57.4974C19.6115 56.6045 18.0125 53.5594 18.9056 50.6944L22.3635 39.6028C23.2566 36.7379 26.3031 35.1401 29.1673 36.033L92.0617 55.6405C94.9259 56.5334 96.5247 59.5794 95.6315 62.4443L92.1737 73.5359C91.2805 76.4009 88.2343 77.9979 85.3701 77.1049Z" fill="#E6E6E6"/>
<path d="M40.847 63.2252L85.37 77.1053C88.2342 77.9983 91.2812 76.4015 92.1743 73.5365L95.6322 62.445C96.5253 59.58 94.9258 56.5338 92.0616 55.6409L83.5934 53.0009C83.5934 53.0009 64.8838 70.7187 40.847 63.2252Z" fill="#D8D8D8"/>
<path d="M85.9415 77.2838L21.9053 57.3203L7.8165 102.512C6.04935 108.181 9.21253 114.209 14.8802 115.975L58.3897 129.54C64.0582 131.307 70.0856 128.144 71.8527 122.476L85.9415 77.2838Z" fill="#307CFF"/>
<path d="M85.9406 77.2842L52.1325 66.7444C61.7491 73.3254 72.3886 85.9112 68.4724 98.4731C61.2059 121.782 46.0775 121.842 19.0241 117.268L58.3888 129.54C64.0572 131.307 70.0846 128.145 71.8518 122.476L85.9406 77.2842Z" fill="#2274D8"/>
<path d="M26.0084 52.9087L29.4663 41.8171C30.3594 38.9522 33.4059 37.3544 36.2701 38.2473L29.1673 36.033C26.3031 35.1401 23.2566 36.7379 22.3635 39.6028L18.9056 50.6944C18.0125 53.5594 19.6112 56.6053 22.4755 57.4982L29.5783 59.7125C26.714 58.8196 25.1153 55.7737 26.0084 52.9087Z" fill="#EFF1F4"/>
<path d="M14.9185 104.727L29.0073 59.5344L21.9053 57.3203L7.8165 102.512C6.04935 108.181 9.21253 114.209 14.8802 115.975L21.9823 118.19C16.3138 116.422 13.1514 110.395 14.9185 104.727Z" fill="#65A1F9"/>
<path d="M63.959 93.6132L53.9357 90.4884L57.0605 80.4651L43.8624 76.3506L40.7376 86.3739L30.7136 83.2489L26.5993 96.4462L36.6233 99.5712L33.4985 109.595L46.6966 113.709L49.8214 103.686L59.8447 106.811L63.959 93.6132Z" fill="white"/>
<path d="M85.3701 77.1049L22.4757 57.4974C19.6115 56.6045 18.0125 53.5594 18.9056 50.6944L22.3635 39.6028C23.2566 36.7379 26.3031 35.1401 29.1673 36.033L92.0617 55.6405C94.9259 56.5334 96.5247 59.5794 95.6315 62.4443L92.1737 73.5359C91.2805 76.4009 88.2343 77.9979 85.3701 77.1049Z" stroke="#2C3447" stroke-width="3.1432" stroke-linecap="round" stroke-linejoin="round"/>
<path d="M85.9415 77.2838L21.9053 57.3203L7.8165 102.512C6.04935 108.181 9.21253 114.209 14.8802 115.975L58.3897 129.54C64.0582 131.307 70.0856 128.144 71.8527 122.476L85.9415 77.2838Z" stroke="#2C3447" stroke-width="3.1432" stroke-linecap="round" stroke-linejoin="round"/>
<path d="M63.959 93.6132L53.9357 90.4884L57.0605 80.4651L43.8624 76.3506L40.7376 86.3739L30.7136 83.2489L26.5993 96.4462L36.6233 99.5712L33.4985 109.595L46.6966 113.709L49.8214 103.686L59.8447 106.811L63.959 93.6132Z" stroke="#2C3447" stroke-width="3.1432" stroke-linecap="round" stroke-linejoin="round"/>
<path d="M30.2363 41.5088L26.3019 54.1292" stroke="#BDBDBD" stroke-width="3.1432" stroke-linecap="round" stroke-linejoin="round"/>
<path d="M37.6196 43.8105L33.6852 56.431" stroke="#BDBDBD" stroke-width="3.1432" stroke-linecap="round" stroke-linejoin="round"/>
<path d="M45.0024 46.1123L41.068 58.7327" stroke="#BDBDBD" stroke-width="3.1432" stroke-linecap="round" stroke-linejoin="round"/>
<path d="M52.3853 48.4141L48.4508 61.0345" stroke="#BDBDBD" stroke-width="3.1432" stroke-linecap="round" stroke-linejoin="round"/>
<path d="M59.7686 50.7158L55.8341 63.3363" stroke="#BDBDBD" stroke-width="3.1432" stroke-linecap="round" stroke-linejoin="round"/>
<path d="M67.1519 53.0176L63.2174 65.638" stroke="#BDBDBD" stroke-width="3.1432" stroke-linecap="round" stroke-linejoin="round"/>
<path d="M74.5342 55.3193L70.5997 67.9398" stroke="#BDBDBD" stroke-width="3.1432" stroke-linecap="round" stroke-linejoin="round"/>
<path d="M81.918 57.6211L77.9835 70.2415" stroke="#BDBDBD" stroke-width="3.1432" stroke-linecap="round" stroke-linejoin="round"/>
<path d="M89.3003 59.9229L85.3658 72.5433" stroke="#BDBDBD" stroke-width="3.1432" stroke-linecap="round" stroke-linejoin="round"/>
<path d="M29.7036 41.0527L25.7692 53.6732" stroke="#2C3447" stroke-width="3.1432" stroke-linecap="round" stroke-linejoin="round"/>
<path d="M37.0874 43.3545L33.1529 55.9749" stroke="#2C3447" stroke-width="3.1432" stroke-linecap="round" stroke-linejoin="round"/>
<path d="M44.4707 45.6562L40.5362 58.2767" stroke="#2C3447" stroke-width="3.1432" stroke-linecap="round" stroke-linejoin="round"/>
<path d="M51.853 47.958L47.9186 60.5785" stroke="#2C3447" stroke-width="3.1432" stroke-linecap="round" stroke-linejoin="round"/>
<path d="M59.2363 50.2598L55.3019 62.8802" stroke="#2C3447" stroke-width="3.1432" stroke-linecap="round" stroke-linejoin="round"/>
<path d="M66.6191 52.5605L62.6847 65.181" stroke="#2C3447" stroke-width="3.1432" stroke-linecap="round" stroke-linejoin="round"/>
<path d="M74.0024 54.8623L70.068 67.4827" stroke="#2C3447" stroke-width="3.1432" stroke-linecap="round" stroke-linejoin="round"/>
<path d="M81.3857 57.1641L77.4513 69.7845" stroke="#2C3447" stroke-width="3.1432" stroke-linecap="round" stroke-linejoin="round"/>
<path d="M88.7686 59.4658L84.8341 72.0863" stroke="#2C3447" stroke-width="3.1432" stroke-linecap="round" stroke-linejoin="round"/>
<path d="M134.32 376.686L87.1948 409.408C82.5574 412.629 76.1893 411.504 72.936 406.888L21.3607 333.705C18.0763 329.044 19.2151 322.598 23.8995 319.346L71.0252 286.623C75.6634 283.403 82.0315 284.528 85.2839 289.144L136.859 362.327C140.145 366.989 139.005 373.434 134.32 376.686Z" fill="#CECFD0"/>
<path d="M134.32 376.686L87.1948 409.408C82.5574 412.629 76.1893 411.504 72.936 406.888L21.3607 333.705C18.0763 329.044 19.2151 322.598 23.8995 319.346L71.0252 286.623C75.6634 283.403 82.0315 284.528 85.2839 289.144L136.859 362.327C140.145 366.989 139.005 373.434 134.32 376.686Z" stroke="#2C3447" stroke-width="4.66176" stroke-linecap="round" stroke-linejoin="round"/>
<path d="M126.502 387.843L73.5926 410.006C68.3291 412.21 62.2774 409.703 60.1142 404.422L26.1772 321.56C24.0389 316.338 26.5123 310.368 31.7162 308.189L84.6259 286.026C89.8887 283.822 95.9404 286.329 98.1036 291.609L132.041 374.473C134.18 379.695 131.706 385.663 126.502 387.843Z" fill="#EFEFEF"/>
<path d="M74.4588 409.642L126.501 387.843C131.705 385.664 134.179 379.694 132.041 374.472L98.105 291.611C95.942 286.329 89.8894 283.822 84.6259 286.026L62.9488 295.107C78.4835 294.544 95.5535 300.719 105.397 331.875C116.782 367.91 87.5544 398.117 74.4588 409.642Z" fill="#E1E1E1"/>
<path d="M126.502 387.843L73.5926 410.006C68.3291 412.21 62.2774 409.703 60.1142 404.422L26.1772 321.56C24.0389 316.338 26.5123 310.368 31.7162 308.189L84.6259 286.026C89.8887 283.822 95.9404 286.329 98.1036 291.609L132.041 374.473C134.18 379.695 131.706 385.663 126.502 387.843Z" stroke="#2C3447" stroke-width="4.66176" stroke-linecap="round" stroke-linejoin="round"/>
<path d="M38.999 322.001L90.6176 301.187" stroke="#2C3447" stroke-width="4.66176" stroke-linecap="round" stroke-linejoin="round"/>
<path d="M43.457 332.88L95.0747 312.066" stroke="#2C3447" stroke-width="4.66176" stroke-linecap="round" stroke-linejoin="round"/>
<path d="M47.9136 343.76L99.5321 322.946" stroke="#2C3447" stroke-width="4.66176" stroke-linecap="round" stroke-linejoin="round"/>
<path d="M52.3701 354.638L103.988 333.824" stroke="#2C3447" stroke-width="4.66176" stroke-linecap="round" stroke-linejoin="round"/>
<path d="M56.8262 365.519L108.445 344.704" stroke="#2C3447" stroke-width="4.66176" stroke-linecap="round" stroke-linejoin="round"/>
<path d="M61.2837 376.397L112.901 355.584" stroke="#2C3447" stroke-width="4.66176" stroke-linecap="round" stroke-linejoin="round"/>
<path d="M65.7402 387.277L117.359 366.463" stroke="#2C3447" stroke-width="4.66176" stroke-linecap="round" stroke-linejoin="round"/>
<path d="M433.573 335.447L360.34 399.594C357.119 402.415 352.22 402.091 349.399 398.87L311.306 355.382C308.484 352.16 308.808 347.262 312.029 344.44L385.263 280.293C388.483 277.472 393.381 277.796 396.203 281.018L434.296 324.507C437.117 327.727 436.794 332.626 433.573 335.447Z" fill="#F26464"/>
<path d="M353.146 395.588L315.053 352.1C312.231 348.878 312.555 343.98 315.776 341.158L312.029 344.441C308.808 347.262 308.484 352.16 311.306 355.382L349.399 398.87C352.219 402.09 357.119 402.415 360.339 399.595L364.087 396.312C360.866 399.133 355.966 398.808 353.146 395.588Z" fill="#FFA1A1"/>
<path d="M385.264 280.294L374.056 290.112C387.416 305.964 416.638 350.28 369.162 391.866L433.573 335.446C436.793 332.626 437.117 327.728 434.296 324.507L396.204 281.019C393.382 277.797 388.484 277.474 385.264 280.294Z" fill="#DC5252"/>
<path d="M433.573 335.447L360.34 399.594C357.119 402.415 352.22 402.091 349.399 398.87L311.306 355.382C308.484 352.16 308.808 347.262 312.029 344.44L385.263 280.293C388.483 277.472 393.381 277.796 396.203 281.018L434.296 324.507C437.117 327.727 436.794 332.626 433.573 335.447Z" stroke="#2C3447" stroke-width="4" stroke-linecap="round" stroke-linejoin="round"/>
<path d="M382.324 321.361L373.521 329.072L365.809 320.268L354.217 330.422L361.929 339.226L353.126 346.937L363.279 358.528L372.082 350.817L379.793 359.62L391.385 349.467L383.674 340.663L392.477 332.952L382.324 321.361Z" fill="white"/>
<path d="M382.324 321.361L373.521 329.072L365.809 320.268L354.217 330.422L361.929 339.226L353.126 346.937L363.279 358.528L372.082 350.817L379.793 359.62L391.385 349.467L383.674 340.663L392.477 332.952L382.324 321.361Z" stroke="#2C3447" stroke-width="4" stroke-linecap="round" stroke-linejoin="round"/>
<path d="M351.701 294.192L330.227 313.001C328.516 314.5 328.344 317.105 329.843 318.817L334.81 324.487L362.483 300.247L357.516 294.578C356.017 292.866 353.413 292.693 351.701 294.192Z" stroke="#2C3447" stroke-width="4" stroke-linecap="round" stroke-linejoin="round"/>
<path d="M351.442 299.412L335.882 313.042C335.238 313.606 334.258 313.541 333.694 312.896L330.788 309.579C330.224 308.935 330.288 307.955 330.932 307.391L346.492 293.761C347.136 293.197 348.117 293.262 348.681 293.906L351.586 297.224C352.151 297.868 352.086 298.848 351.442 299.412Z" fill="#307CFF"/>
<path d="M351.442 299.412L335.882 313.042C335.238 313.606 334.258 313.541 333.694 312.896L330.788 309.579C330.224 308.935 330.288 307.955 330.932 307.391L346.492 293.761C347.136 293.197 348.117 293.262 348.681 293.906L351.586 297.224C352.151 297.868 352.086 298.848 351.442 299.412Z" stroke="#2C3447" stroke-width="4" stroke-linecap="round" stroke-linejoin="round"/>
<path d="M377.43 94.1805C363.471 94.1007 352.281 82.5661 352.281 68.6072V28.8241C352.281 22.6754 357.266 17.6895 363.415 17.6895V21.4172C359.324 21.4172 356.008 24.7335 356.008 28.8241V68.6484C356.008 80.5508 365.548 90.3853 377.45 90.4536C389.402 90.5219 399.147 80.8207 399.147 68.8854V28.8241C399.147 24.7335 395.831 21.4172 391.74 21.4172V17.6895C397.889 17.6895 402.874 22.6754 402.874 28.8241V68.8854C402.874 82.8837 391.446 94.2611 377.43 94.1805Z" fill="#595E74"/>
<path d="M377.43 94.1805C363.471 94.1007 352.281 82.5661 352.281 68.6072V28.8241C352.281 22.6754 357.266 17.6895 363.415 17.6895V21.4172C359.324 21.4172 356.008 24.7335 356.008 28.8241V68.6484C356.008 80.5508 365.548 90.3853 377.45 90.4536C389.402 90.5219 399.147 80.8207 399.147 68.8854V28.8241C399.147 24.7335 395.831 21.4172 391.74 21.4172V17.6895C397.889 17.6895 402.874 22.6754 402.874 28.8241V68.8854C402.874 82.8837 391.446 94.2611 377.43 94.1805Z" fill="#2C3447"/>
<path d="M387.222 123.575H386.623C380.803 123.575 376.087 118.859 376.087 113.038V93.8095C376.087 92.9857 376.753 92.3184 377.577 92.3184C378.4 92.3184 379.067 92.9857 379.067 93.8095V112.739C379.067 117.078 382.585 120.594 386.923 120.594C391.26 120.594 394.777 117.078 394.777 112.739V109.884C394.777 107.58 396.645 105.711 398.95 105.711H409.597C411.902 105.711 413.771 107.58 413.771 109.884V114.333C413.771 115.156 414.438 115.824 415.261 115.824H430.407C431.23 115.824 431.898 116.492 431.898 117.315C431.898 118.138 431.23 118.805 430.407 118.805H414.962C412.657 118.805 410.789 116.937 410.789 114.632V110.184C410.789 109.361 410.122 108.692 409.298 108.692H399.249C398.425 108.692 397.758 109.361 397.758 110.184V113.038C397.758 118.859 393.041 123.575 387.222 123.575Z" fill="#2C3447"/>
<path d="M387.222 123.575H386.623C380.803 123.575 376.087 118.859 376.087 113.038V93.8095C376.087 92.9857 376.753 92.3184 377.577 92.3184C378.4 92.3184 379.067 92.9857 379.067 93.8095V112.739C379.067 117.078 382.585 120.594 386.923 120.594C391.26 120.594 394.777 117.078 394.777 112.739V109.884C394.777 107.58 396.645 105.711 398.95 105.711H409.597C411.902 105.711 413.771 107.58 413.771 109.884V114.333C413.771 115.156 414.438 115.824 415.261 115.824H430.407C431.23 115.824 431.898 116.492 431.898 117.315C431.898 118.138 431.23 118.805 430.407 118.805H414.962C412.657 118.805 410.789 116.937 410.789 114.632V110.184C410.789 109.361 410.122 108.692 409.298 108.692H399.249C398.425 108.692 397.758 109.361 397.758 110.184V113.038C397.758 118.859 393.041 123.575 387.222 123.575Z" stroke="#2C3447" stroke-width="2.4687" stroke-miterlimit="10"/>
<path d="M438.7 117.313C438.7 113.03 435.227 109.558 430.944 109.558C426.661 109.558 423.188 113.03 423.188 117.313C423.188 121.597 426.661 125.069 430.944 125.069C435.227 125.069 438.7 121.597 438.7 117.313Z" fill="#62ABF4"/>
<path d="M438.7 117.313C438.7 113.03 435.227 109.558 430.944 109.558C426.661 109.558 423.188 113.03 423.188 117.313C423.188 121.597 426.661 125.069 430.944 125.069C435.227 125.069 438.7 121.597 438.7 117.313Z" stroke="#2C3447" stroke-width="3.2916" stroke-linecap="round" stroke-linejoin="round"/>
<path d="M434.598 117.314C434.598 115.296 432.962 113.661 430.944 113.661C428.926 113.661 427.291 115.296 427.291 117.314C427.291 119.332 428.926 120.967 430.944 120.967C432.962 120.967 434.598 119.332 434.598 117.314Z" fill="#2C3447"/>
<path d="M397.282 47.6152V68.8864C397.282 79.7519 388.443 88.5907 377.577 88.5907C366.712 88.5907 357.87 79.7519 357.87 68.8864V47.6152H350.417V68.8864C350.417 83.8615 362.601 96.0462 377.577 96.0462C392.553 96.0462 404.737 83.8615 404.737 68.8864V47.6152H397.282Z" fill="#62ABF4"/>
<path d="M397.282 47.6152V68.8864C397.282 79.7519 388.443 88.5907 377.577 88.5907C366.712 88.5907 357.87 79.7519 357.87 68.8864V47.6152H350.417V68.8864C350.417 83.8615 362.601 96.0462 377.577 96.0462C392.553 96.0462 404.737 83.8615 404.737 68.8864V47.6152H397.282Z" stroke="#2C3447" stroke-width="3.2916" stroke-linecap="round" stroke-linejoin="round"/>
<path d="M369.155 21.1162C369.155 24.2383 367.315 26.7695 365.046 26.7695C362.777 26.7695 360.938 24.2383 360.938 21.1162C360.938 17.9941 362.777 15.4629 365.046 15.4629C367.315 15.4629 369.155 17.9941 369.155 21.1162Z" fill="#595E74"/>
<path d="M369.155 21.1162C369.155 24.2383 367.315 26.7695 365.046 26.7695C362.777 26.7695 360.938 24.2383 360.938 21.1162C360.938 17.9941 362.777 15.4629 365.046 15.4629C367.315 15.4629 369.155 17.9941 369.155 21.1162Z" stroke="#2C3447" stroke-width="3.2916" stroke-miterlimit="10"/>
<path d="M394.218 20.6838C394.218 23.8058 392.379 26.3379 390.109 26.3379C387.84 26.3379 386 23.8058 386 20.6838C386 17.5617 387.84 15.0312 390.109 15.0312C392.379 15.0312 394.218 17.5617 394.218 20.6838Z" fill="#595E74"/>
<path d="M394.218 20.6838C394.218 23.8058 392.379 26.3379 390.109 26.3379C387.84 26.3379 386 23.8058 386 20.6838C386 17.5617 387.84 15.0312 390.109 15.0312C392.379 15.0312 394.218 17.5617 394.218 20.6838Z" stroke="#2C3447" stroke-width="3.2916" stroke-miterlimit="10"/>
<path d="M239.695 344.903L215.134 358.672L190.57 344.903C134.457 313.45 99.7104 254.14 99.7104 189.813V104.475L215.134 87.6309L330.554 104.475V189.813C330.554 254.14 295.807 313.45 239.695 344.903Z" fill="#DAEEFF"/>
<path d="M202.041 344.902C145.929 313.45 111.182 254.14 111.182 189.813V104.474L220.868 88.4675L215.133 87.6309L99.7104 104.474V189.813C99.7104 254.14 134.458 313.45 190.57 344.902L215.133 358.672L220.868 355.455L202.041 344.902Z" fill="#F5F9FC"/>
<path d="M199.761 321.423C153.248 295.352 124.353 246.032 124.353 192.709V127.38L215.133 114.132L305.913 127.38V192.709C305.913 246.032 277.019 295.352 230.506 321.423L215.133 330.041L199.761 321.423Z" fill="#62ABF4"/>
<path d="M305.913 192.709V127.38L267.348 121.751C267.145 152.666 260.474 268.732 173.232 302.381C181.256 309.608 190.124 316.02 199.761 321.422L215.134 330.038L230.506 321.422C277.018 295.35 305.913 246.03 305.913 192.709Z" fill="#4B9FD5"/>
<path d="M239.695 344.903L215.134 358.672L190.57 344.903C134.457 313.45 99.7104 254.14 99.7104 189.813V104.475L215.134 87.6309L330.554 104.475V189.813C330.554 254.14 295.807 313.45 239.695 344.903Z" stroke="#2C3447" stroke-width="4.94298" stroke-linecap="round" stroke-linejoin="round"/>
<path d="M199.761 321.423C153.248 295.352 124.353 246.032 124.353 192.709V127.38L215.133 114.132L305.913 127.38V192.709C305.913 246.032 277.019 295.352 230.506 321.423L215.133 330.041L199.761 321.423Z" stroke="#2C3447" stroke-width="4.94298" stroke-linecap="round" stroke-linejoin="round"/>
<path d="M269.009 181.578H236.521V149.092H193.745V181.578H161.257V224.355H193.745V256.841H236.521V224.355H269.009V181.578Z" fill="white"/>
<path d="M269.009 181.578H236.521V149.092H193.745V181.578H161.257V224.355H193.745V256.841H236.521V224.355H269.009V181.578Z" stroke="#2C3447" stroke-width="4.94298" stroke-linecap="round" stroke-linejoin="round"/>
</svg>
