<svg width="1480" height="1135" viewBox="0 0 1480 1135" fill="none" xmlns="http://www.w3.org/2000/svg">
<g clip-path="url(#clip0_105_255)">
<mask id="mask0_105_255" style="mask-type:luminance" maskUnits="userSpaceOnUse" x="0" y="0" width="1480" height="1135">
<path d="M1479.53 0.11792H0.533203V1134.12H1479.53V0.11792Z" fill="white"/>
</mask>
<g mask="url(#mask0_105_255)">
<path d="M1155.52 1019.86C1456.98 967.337 1471.91 818.809 1395.58 686.15C1300.46 520.835 1389.75 406.784 1267.58 381.459C1140.75 355.157 1139.13 675.89 847.25 672.48C415.919 667.394 775.509 1086.1 1155.52 1019.86Z" fill="#F8F9FD"/>
<path d="M339.464 146.706C74.1776 192.922 61.0407 323.627 128.213 440.367C211.921 585.844 133.343 686.208 240.856 708.495C352.46 731.641 353.892 449.395 610.743 452.396C990.314 456.872 673.875 88.413 339.464 146.706Z" fill="#F8F9FD"/>
<path d="M263.668 199.084C263.668 175.242 283.026 155.884 306.868 155.884H1163.31C1187.15 155.884 1206.51 175.242 1206.51 199.084V791.161C1206.51 815.003 1187.15 834.361 1163.31 834.361H306.868C283.026 834.361 263.668 815.003 263.668 791.161V199.084Z" fill="url(#paint0_linear_105_255)"/>
<mask id="mask1_105_255" style="mask-type:alpha" maskUnits="userSpaceOnUse" x="263" y="155" width="944" height="680">
<path d="M263.664 199.088C263.664 175.238 283.024 155.888 306.864 155.888H1163.3C1187.15 155.888 1206.5 175.238 1206.5 199.088V791.158C1206.5 815.008 1187.15 834.358 1163.3 834.358H306.864C283.024 834.358 263.664 815.008 263.664 791.158V199.088Z" fill="#FF0000"/>
<path d="M263.668 199.084C263.668 175.242 283.026 155.884 306.868 155.884H1163.31C1187.15 155.884 1206.51 175.242 1206.51 199.084V791.161C1206.51 815.003 1187.15 834.361 1163.31 834.361H306.868C283.026 834.361 263.668 815.003 263.668 791.161V199.084Z" fill="url(#paint1_linear_105_255)"/>
</mask>
<g mask="url(#mask1_105_255)">
<path d="M393.531 583.204C393.531 569.958 404.286 559.204 417.531 559.204H966.531C979.777 559.204 990.531 569.958 990.531 583.204V931.204C990.531 944.45 979.777 955.204 966.531 955.204H417.531C404.286 955.204 393.531 944.45 393.531 931.204V583.204Z" fill="#BCC1C6"/>
</g>
<path d="M715.135 328.853L423.955 564.143V608.003H731.035H1038.12V564.143L746.935 328.853C737.665 321.383 724.405 321.383 715.135 328.853Z" fill="#00897B"/>
<mask id="mask2_105_255" style="mask-type:luminance" maskUnits="userSpaceOnUse" x="423" y="321" width="616" height="532">
<path d="M423.533 321.118H1038.53V852.118H423.533V321.118Z" fill="white"/>
</mask>
<g mask="url(#mask2_105_255)">
<path d="M981.494 851.159H492.584C478.604 851.159 467.264 839.819 467.264 825.839V346.439C467.264 332.459 478.604 321.119 492.584 321.119H981.494C995.474 321.119 1006.81 332.459 1006.81 346.439V825.839C1006.81 839.819 995.474 851.159 981.494 851.159Z" fill="#F8F9FD"/>
<path d="M856.523 455.492C856.523 525.212 799.883 581.732 730.013 581.732C660.173 581.732 603.533 525.212 603.533 455.492C603.533 385.742 660.173 329.222 730.013 329.222C799.883 329.222 856.523 385.742 856.523 455.492Z" fill="white"/>
<mask id="mask3_105_255" style="mask-type:luminance" maskUnits="userSpaceOnUse" x="591" y="362" width="262" height="244">
<path d="M591.533 362.118H852.533V605.118H591.533V362.118Z" fill="white"/>
</mask>
<g mask="url(#mask3_105_255)">
<path d="M743.415 504.414C755.835 504.414 765.315 505.404 765.315 497.124C765.315 488.844 756.735 484.554 744.315 484.554C731.865 484.554 721.215 488.184 721.215 496.464C721.215 504.774 730.965 504.414 743.415 504.414Z" fill="#7E330F"/>
<path d="M719.358 434.835C732.078 434.835 742.398 424.575 742.398 411.975C742.398 399.345 732.078 389.115 719.358 389.115C706.638 389.115 696.318 399.345 696.318 411.975C696.318 424.575 706.638 434.835 719.358 434.835ZM766.695 432.327C779.415 432.327 789.735 422.067 789.735 409.467C789.735 396.837 779.415 386.607 766.695 386.607C753.975 386.607 743.655 396.837 743.655 409.467C743.655 422.067 753.975 432.327 766.695 432.327ZM764.673 414.792C777.393 414.792 787.713 404.532 787.713 391.932C787.713 379.302 777.393 369.072 764.673 369.072C751.953 369.072 741.633 379.302 741.633 391.932C741.633 404.532 751.953 414.792 764.673 414.792ZM720.264 416.724C732.984 416.724 743.304 406.464 743.304 393.864C743.304 381.234 732.984 371.004 720.264 371.004C707.544 371.004 697.224 381.234 697.224 393.864C697.224 406.464 707.544 416.724 720.264 416.724ZM742.47 407.838C755.19 407.838 765.51 397.578 765.51 384.978C765.51 372.348 755.19 362.118 742.47 362.118C729.75 362.118 719.43 372.348 719.43 384.978C719.43 397.578 729.75 407.838 742.47 407.838Z" fill="#363636"/>
<path d="M733.666 507.315L729.616 505.335C726.796 503.955 724.636 501.495 723.646 498.525C722.686 495.525 722.956 492.285 724.426 489.525C728.566 481.845 728.566 473.865 727.336 467.385C726.706 463.995 727.606 460.485 729.856 457.845C732.076 455.205 735.376 453.675 738.856 453.675C745.306 453.675 750.556 458.865 750.556 465.285V496.875C750.556 500.895 748.456 504.615 745.036 506.745C741.586 508.875 737.296 509.085 733.666 507.315ZM752.86 508.032C749.23 509.802 744.94 509.592 741.52 507.462C738.1 505.362 736 501.642 736 497.622V466.032C736 462.942 737.23 459.972 739.42 457.812C741.61 455.622 744.58 454.392 747.7 454.392C751.18 454.392 754.48 455.922 756.7 458.562C758.92 461.202 759.85 464.712 759.22 468.102C757.96 474.582 757.99 482.562 762.13 490.242C763.6 493.002 763.87 496.242 762.88 499.242C761.92 502.212 759.76 504.672 756.91 506.052L752.86 508.032Z" fill="#7A5D45"/>
<path d="M709.942 454.29C715.702 454.29 720.382 449.67 720.382 443.94C720.382 438.21 715.702 433.59 709.942 433.59C704.182 433.59 699.502 438.21 699.502 443.94C699.502 449.67 704.182 454.29 709.942 454.29Z" fill="#997559"/>
<path d="M775.184 454.005C780.944 454.005 785.624 449.385 785.624 443.655C785.624 437.925 780.944 433.305 775.184 433.305C769.424 433.305 764.744 437.925 764.744 443.655C764.744 449.385 769.424 454.005 775.184 454.005Z" fill="#997559"/>
<path d="M783.855 430.737C783.855 446.337 776.715 466.707 763.695 473.487C758.025 476.427 754.095 485.397 742.755 485.097C730.995 484.827 727.965 476.097 722.175 472.977C709.425 466.107 702.135 446.127 702.135 430.737C702.405 408.537 720.615 390.687 742.995 390.687C765.375 390.687 783.585 408.537 783.855 430.737Z" fill="#997559"/>
<path d="M742.731 383.199C689.781 381.279 702.081 434.799 702.081 434.799C704.451 428.499 706.431 421.989 709.011 415.809C710.181 412.929 711.681 410.229 713.541 407.769C715.131 405.759 716.661 403.239 719.241 402.339C721.941 401.409 724.791 402.669 727.491 402.879C728.571 402.939 740.991 403.569 742.731 402.909C744.501 403.569 756.891 402.939 757.971 402.879C760.701 402.669 763.551 401.409 766.251 402.339C768.801 403.209 770.361 405.759 771.921 407.769C773.781 410.229 775.311 412.929 776.451 415.809C779.061 421.989 781.041 428.499 783.381 434.799C783.381 434.799 795.681 381.279 742.731 383.199Z" fill="#232323"/>
<path d="M724.146 494.535C727.806 500.985 746.046 502.905 743.046 502.905V593.595L691.116 589.995C688.896 578.625 687.216 525.075 696.546 518.115C698.346 516.705 701.946 505.995 705.546 500.115C707.316 497.175 708.936 497.835 710.646 496.695C720.966 489.795 722.796 491.445 722.796 491.445L724.146 494.535ZM762.321 494.523L763.731 491.433C763.731 491.433 773.748 496.653 789.768 509.043C799.098 516.003 803.601 566.643 801.381 578.013L742.848 580.863V502.893C742.848 502.893 758.661 500.973 762.321 494.523Z" fill="#FFC852"/>
<g opacity="0.31">
<path d="M711.533 548.706C711.533 548.706 712.013 581.736 705.533 581.736C699.053 581.736 690.533 578.106 690.533 578.106L711.533 548.706Z" fill="#994016"/>
</g>
<mask id="mask4_105_255" style="mask-type:luminance" maskUnits="userSpaceOnUse" x="613" y="465" width="46" height="80">
<path d="M643.371 465.175L613.98 471.188L629.012 544.666L658.403 538.653L643.371 465.175Z" fill="white"/>
</mask>
<g mask="url(#mask4_105_255)">
<path d="M656.441 529.069C656.441 529.069 646.184 504.527 645.835 502.822C645.487 501.117 644.769 489.077 639.488 480.328C636.525 475.422 634.741 476.43 635.138 481.217C635.312 483.264 636.646 489.636 636.646 489.636C636.646 489.636 631.24 473.839 627.314 472.009C626.665 471.682 624.727 469.843 623.346 470.126C621.847 470.432 619.897 469.882 618.408 471.136C616.913 472.36 616.264 474.423 615.936 476.113C615.717 477.29 615.936 478.96 616.54 481.164C617.401 484.172 619.042 492.196 624.044 501.829C625.967 505.539 632.065 512.743 632.065 512.743L641.089 539.344L656.796 530.803L656.441 529.069Z" fill="#997559"/>
<mask id="mask5_105_255" style="mask-type:alpha" maskUnits="userSpaceOnUse" x="615" y="470" width="42" height="70">
<path d="M656.441 529.069C656.441 529.069 646.184 504.527 645.835 502.822C645.487 501.117 644.769 489.077 639.488 480.328C636.525 475.422 634.741 476.43 635.138 481.217C635.312 483.264 636.646 489.636 636.646 489.636C636.646 489.636 631.24 473.839 627.314 472.009C626.665 471.682 624.727 469.843 623.346 470.126C621.847 470.432 619.897 469.882 618.408 471.136C616.913 472.36 616.264 474.423 615.936 476.113C615.717 477.29 615.936 478.96 616.54 481.164C617.401 484.172 619.042 492.196 624.044 501.829C625.967 505.539 632.065 512.743 632.065 512.743L641.089 539.344L656.796 530.803L656.441 529.069Z" fill="#FF0000"/>
<path d="M656.441 529.069C656.441 529.069 646.184 504.527 645.835 502.822C645.487 501.117 644.769 489.077 639.488 480.328C636.525 475.422 634.741 476.43 635.138 481.217C635.312 483.264 636.646 489.636 636.646 489.636C636.646 489.636 631.24 473.839 627.314 472.009C626.665 471.682 624.727 469.843 623.346 470.126C621.847 470.432 619.897 469.882 618.408 471.136C616.913 472.36 616.264 474.423 615.936 476.113C615.717 477.29 615.936 478.96 616.54 481.164C617.401 484.172 619.042 492.196 624.044 501.829C625.967 505.539 632.065 512.743 632.065 512.743L641.089 539.344L656.796 530.803L656.441 529.069Z" fill="#997559"/>
</mask>
<g mask="url(#mask5_105_255)">
<path d="M656.626 529.977L655.58 524.863C655.58 524.863 649.756 529.025 647.343 530.1C644.929 531.176 637.849 532.042 637.849 532.042L640.571 536.814L656.626 529.977Z" fill="#795D46"/>
</g>
</g>
<path d="M666.236 542.223C664.952 539.393 660.129 527.488 660.129 527.488L636.784 535.816C636.784 535.816 650.234 585.396 657.809 595.483C662.313 601.482 668.413 603.908 672.969 602.976C691.25 599.237 667.739 545.529 666.236 542.223Z" fill="#FFC852"/>
<path d="M705.532 500.118C705.532 500.118 690.022 508.128 680.062 540.708C676.492 552.378 679.582 547.728 678.772 544.188C678.082 541.158 668.542 605.058 673.192 605.058C691.852 605.058 708.352 554.628 708.352 554.628L705.532 500.118Z" fill="#FFC852"/>
<path d="M780.103 455.673C781.993 455.673 783.553 454.143 783.553 452.253C783.553 450.333 781.993 448.803 780.103 448.803C778.183 448.803 776.623 450.333 776.623 452.253C776.623 454.143 778.183 455.673 780.103 455.673Z" fill="#B5B8B8"/>
<path d="M706.472 456.606C708.362 456.606 709.922 455.076 709.922 453.186C709.922 451.266 708.362 449.736 706.472 449.736C704.552 449.736 702.992 451.266 702.992 453.186C702.992 455.076 704.552 456.606 706.472 456.606Z" fill="#B5B8B8"/>
<path d="M744.533 467.118C751.163 467.118 756.533 458.118 756.533 458.118H732.533C732.533 458.118 737.903 467.118 744.533 467.118Z" fill="white"/>
<path d="M723.533 430.788C723.533 430.788 729.533 426.138 735.533 430.788" stroke="#795D46" stroke-width="3" stroke-linecap="round"/>
<path d="M750.514 430.788C750.514 430.788 756.514 426.138 762.514 430.788" stroke="#795D46" stroke-width="3" stroke-linecap="round"/>
<g opacity="0.31">
<path d="M775.673 542.118L773.783 578.118L783.053 572.118L775.673 542.118Z" fill="#994016"/>
</g>
</g>
<mask id="mask6_105_255" style="mask-type:alpha" maskUnits="userSpaceOnUse" x="603" y="328" width="257" height="257">
<path d="M858.533 329.118V584.118H603.533V329.118H858.533Z" stroke="#4BC1FB" stroke-opacity="0.5"/>
</mask>
<g mask="url(#mask6_105_255)">
<path d="M856.527 455.49C856.527 525.21 799.887 581.73 730.017 581.73C660.177 581.73 603.537 525.21 603.537 455.49C603.537 385.74 660.177 329.22 730.017 329.22C799.887 329.22 856.527 385.74 856.527 455.49Z" fill="#FF0000"/>
<path d="M856.525 455.492C856.525 525.212 799.885 581.732 730.015 581.732C660.175 581.732 603.535 525.212 603.535 455.492C603.535 385.742 660.175 329.222 730.015 329.222C799.885 329.222 856.525 385.742 856.525 455.492Z" fill="white"/>
</g>
<path d="M820.972 665.626C818.842 665.626 817.252 665.056 816.172 663.916C815.092 662.746 814.552 661.246 814.552 659.386C814.552 657.226 815.152 655.486 816.382 654.196C817.612 652.906 819.322 652.246 821.542 652.246C823.642 652.246 825.232 652.756 826.312 653.806C827.392 654.826 827.932 656.356 827.932 658.366C827.932 660.586 827.332 662.326 826.072 663.646C824.812 664.966 823.132 665.626 820.972 665.626ZM823.684 648.418C822.724 648.418 821.944 648.208 821.314 647.788C820.684 647.338 820.384 646.678 820.384 645.778L820.444 645.178C821.284 639.808 822.364 633.688 823.774 626.818C825.154 619.978 826.444 614.038 827.644 609.058C828.424 605.968 830.524 604.438 833.914 604.438C837.004 604.438 838.534 605.428 838.534 607.378C838.534 607.828 838.444 608.308 838.324 608.818C837.064 613.918 835.414 620.068 833.344 627.298C831.274 634.528 829.324 640.798 827.434 646.138C826.924 647.668 825.664 648.418 823.684 648.418ZM794.302 657.85C795.922 657.85 797.302 656.98 798.442 655.21C799.582 653.41 800.122 650.83 800.122 647.41C800.122 644.77 799.642 642.79 798.682 641.44C797.722 640.09 796.582 639.43 795.232 639.43C793.522 639.43 792.082 640.3 790.942 642.07C789.832 643.81 789.262 646.42 789.262 649.87C789.262 652.6 789.742 654.61 790.702 655.93C791.662 657.22 792.862 657.85 794.302 657.85ZM793.522 665.644C790.672 665.644 788.272 664.924 786.262 663.514C784.282 662.104 782.782 660.244 781.762 657.934C780.772 655.624 780.262 653.164 780.262 650.524C780.262 646.864 780.952 643.624 782.302 640.774C783.682 637.894 785.542 635.674 787.882 634.054C790.252 632.464 792.892 631.654 795.802 631.654C798.652 631.654 801.082 632.374 803.092 633.784C805.102 635.194 806.602 637.054 807.622 639.364C808.642 641.674 809.122 644.134 809.122 646.774C809.122 650.434 808.432 653.674 807.052 656.524C805.642 659.374 803.782 661.624 801.382 663.214C799.012 664.834 796.402 665.644 793.522 665.644ZM774.634 604.726C773.524 604.726 772.264 606.706 770.884 610.696C769.504 614.686 768.274 619.636 767.224 625.546C766.144 631.426 765.574 637.096 765.484 642.526C768.904 636.916 771.604 631.276 773.614 625.636C775.624 619.996 776.644 614.866 776.644 610.186C776.644 606.556 775.984 604.726 774.634 604.726ZM777.4 663.178C774.97 664.828 772.24 665.638 769.15 665.638C764.92 665.638 761.8 663.718 759.76 659.878C757.72 656.038 756.7 651.058 756.7 644.968C756.7 639.118 757.45 632.458 758.98 624.958C760.48 617.458 762.7 611.038 765.67 605.668C768.61 600.298 772.12 597.598 776.2 597.598C778.51 597.598 780.34 598.678 781.66 600.808C782.98 602.938 783.64 605.998 783.64 609.988C783.64 615.688 782.05 622.318 778.87 629.848C775.72 637.378 771.4 644.848 766 652.258C766.33 654.208 766.87 655.618 767.65 656.458C768.4 657.298 769.42 657.718 770.68 657.718C772.63 657.718 774.37 657.148 775.84 656.038C777.34 654.898 777.97 655.198 780.25 652.468C780.85 651.778 779.83 661.558 777.4 663.178ZM749.488 604.726C748.378 604.726 747.118 606.706 745.738 610.696C744.358 614.686 743.128 619.636 742.078 625.546C740.998 631.426 740.428 637.096 740.338 642.526C743.758 636.916 746.458 631.276 748.468 625.636C750.478 619.996 751.498 614.866 751.498 610.186C751.498 606.556 750.838 604.726 749.488 604.726ZM756.694 659.368C754.624 661.918 754.684 661.558 752.254 663.178C749.824 664.828 747.094 665.638 744.004 665.638C739.774 665.638 736.654 663.718 734.614 659.878C732.574 656.038 731.554 651.058 731.554 644.968C731.554 639.118 732.304 632.458 733.834 624.958C735.334 617.458 737.554 611.038 740.524 605.668C743.464 600.298 746.974 597.598 751.054 597.598C753.364 597.598 755.194 598.678 756.514 600.808C757.834 602.938 758.494 605.998 758.494 609.988C758.494 615.688 756.904 622.318 753.724 629.848C750.574 637.378 746.254 644.848 740.854 652.258C741.184 654.208 741.724 655.618 742.504 656.458C743.254 657.298 744.274 657.718 745.534 657.718C747.484 657.718 749.224 657.148 750.694 656.038C752.194 654.898 754.084 652.978 756.394 650.218C756.964 649.558 757.624 658.318 756.694 659.368ZM715.042 638.782C713.272 638.782 711.772 639.802 710.542 641.872C709.312 643.942 708.712 646.432 708.712 649.372V649.522C711.532 648.832 713.782 647.842 715.402 646.492C717.052 645.142 717.862 643.582 717.862 641.812C717.862 640.882 717.592 640.162 717.112 639.622C716.602 639.052 715.912 638.782 715.042 638.782ZM732.52 657.706C730.75 659.866 729.55 661.066 726.31 662.896C723.07 664.726 719.62 665.626 715.9 665.626C710.86 665.626 706.96 664.276 704.17 661.546C701.38 658.786 700 655.066 700 650.296C700 646.996 700.69 643.906 702.1 641.056C703.48 638.206 705.4 635.926 707.89 634.246C710.35 632.566 713.14 631.726 716.26 631.726C719.05 631.726 721.3 632.566 722.98 634.216C724.66 635.866 725.5 638.116 725.5 640.936C725.5 644.266 724.3 647.086 721.93 649.486C719.56 651.856 715.54 653.746 709.87 655.126C711.07 657.346 713.35 658.426 716.71 658.426C718.87 658.426 721.33 657.676 724.09 656.176C726.85 654.646 729.22 652.666 731.26 650.236C731.56 649.846 731.65 652.126 732.01 654.196C732.28 655.846 732.94 657.256 732.52 657.706ZM684.136 608.398C683.086 608.398 681.976 609.358 680.806 611.278C679.606 613.198 678.496 615.808 677.446 619.138C676.396 622.438 675.556 626.068 674.926 629.998C678.766 628.408 681.586 626.158 683.416 623.218C685.246 620.308 686.146 616.528 686.146 611.938C686.146 610.828 685.966 609.958 685.576 609.328C685.186 608.698 684.706 608.398 684.136 608.398ZM693.862 649.234C694.492 649.234 694.972 649.504 695.332 650.074C695.692 650.674 695.872 651.454 695.872 652.474C695.872 654.334 695.422 655.834 694.522 656.914C689.752 662.734 684.682 665.644 679.312 665.644C674.662 665.644 670.942 663.844 668.152 660.244C665.362 656.644 663.982 651.484 663.982 644.764C663.982 643.114 664.042 641.494 664.192 639.874C661.042 640.444 657.562 640.864 653.842 641.164C651.322 641.344 649.642 641.464 648.712 641.524C647.752 646.414 646.402 652.414 644.692 659.524C643.672 663.694 641.752 665.794 638.932 665.794C635.842 665.794 634.312 664.384 634.312 661.594C634.312 660.994 634.432 660.124 634.672 659.014C636.322 652.444 637.612 646.864 638.572 642.304L635.122 642.454C633.532 642.454 632.362 642.184 631.642 641.614C630.922 641.074 630.562 640.174 630.562 638.914C630.562 637.354 631.042 636.184 631.942 635.434C632.842 634.684 634.372 634.264 636.472 634.174L640.282 634.024C641.542 627.274 642.172 622.114 642.172 618.544C642.172 616.294 641.842 614.764 641.152 613.954C640.492 613.114 639.592 612.724 638.482 612.724C635.122 612.724 631.342 615.514 627.112 621.154C626.482 621.964 625.792 622.354 625.042 622.354C624.352 622.354 623.782 622.054 623.302 621.424C622.822 620.794 622.582 620.014 622.582 619.054C622.582 617.554 623.182 615.994 624.382 614.314C626.482 611.374 629.152 608.974 632.362 607.054C635.602 605.164 638.842 604.234 642.172 604.234C645.292 604.234 647.692 605.284 649.402 607.414C651.112 609.574 651.952 612.874 651.952 617.404C651.952 621.394 651.382 626.794 650.242 633.604L657.292 633.244C660.322 633.094 662.902 632.854 665.062 632.524C665.932 627.244 667.252 622.294 669.022 617.674C670.792 613.084 673.012 609.334 675.652 606.454C678.292 603.574 681.232 602.134 684.502 602.134C686.902 602.134 688.792 603.094 690.202 604.984C691.582 606.874 692.272 609.364 692.272 612.424C692.272 624.334 686.212 632.584 674.062 637.204C673.912 639.124 673.852 641.104 673.852 643.174C673.852 648.214 674.482 651.784 675.712 653.914C676.972 656.014 678.712 657.064 680.962 657.064C682.942 657.064 684.742 656.554 686.362 655.534C688.012 654.484 689.842 652.714 691.912 650.224C692.482 649.564 693.142 649.234 693.862 649.234Z" fill="#00897B"/>
</g>
<mask id="mask7_105_255" style="mask-type:luminance" maskUnits="userSpaceOnUse" x="423" y="564" width="616" height="373">
<path d="M423.533 564.118H1038.53V936.118H423.533V564.118Z" fill="white"/>
</mask>
<g mask="url(#mask7_105_255)">
<path d="M1038.12 564.705V910.815C1038.12 924.795 1026.78 936.105 1012.8 936.105H449.277C435.297 936.105 423.957 924.795 423.957 910.815V564.705L734.397 809.565L1038.12 564.705Z" fill="#00897B"/>
<path d="M1034.7 923.476L750.299 694.156C741.029 686.686 727.799 686.686 718.529 694.156L429.779 926.956C434.429 932.566 441.419 936.106 449.249 936.106H1012.8C1022.16 936.106 1030.32 931.006 1034.7 923.476Z" fill="#00897B"/>
</g>
<path d="M959.753 144.57L990.672 118.231L1011.61 142.801L980.669 169.12L959.753 144.57Z" fill="white"/>
<path d="M581.783 140.715L615.419 112.063L638.196 138.791L604.536 167.422L581.783 140.715Z" fill="#00897B"/>
<path d="M562.296 1021.92L593.215 995.581L614.153 1020.15L583.212 1046.47L562.296 1021.92Z" fill="#00897B"/>
<path d="M171.583 353.58L202.503 327.241L223.44 351.812L192.499 378.13L171.583 353.58Z" fill="#00897B"/>
<path d="M823.17 846.291L833.542 818.101L855.948 826.361L845.576 854.551L823.17 846.291Z" fill="#E4E6EB"/>
<path d="M229.522 671.145L259.384 674.389L256.79 698.128L226.928 694.884L229.522 671.145Z" fill="#00897B"/>
<path d="M683.041 344.062L693.413 315.872L715.819 324.132L705.447 352.322L683.041 344.062Z" fill="#D9D9D9"/>
<path d="M1282.21 514.293L1312.07 517.537L1309.48 541.276L1279.61 538.032L1282.21 514.293Z" fill="#00897B"/>
<path d="M547.038 594.698L526.742 571.185L545.445 555.062L565.741 578.574L547.038 594.698Z" fill="#00897B"/>
<path d="M1128.09 369.729L1174.7 344.732L1195.34 383.173L1148.73 408.171L1128.09 369.729Z" fill="#00897B"/>
<mask id="mask8_105_255" style="mask-type:luminance" maskUnits="userSpaceOnUse" x="960" y="669" width="211" height="298">
<path d="M960.533 669.118H1170.53V966.118H960.533V669.118Z" fill="white"/>
</mask>
<g mask="url(#mask8_105_255)">
<path d="M960.533 675.922C960.533 672.167 963.582 669.118 967.337 669.118H1162.38C1166.13 669.118 1169.18 672.167 1169.18 675.922V958.234C1169.18 961.989 1166.13 965.038 1162.38 965.038H967.337C963.582 965.038 960.533 961.989 960.533 958.234V675.922Z" fill="white"/>
<path d="M1023.53 894.665H1049.55V898.259H1023.53V894.665Z" fill="#C8C8C8" fill-opacity="0.47"/>
<path d="M1004.63 865.724H1073.8V877.004H1004.63V865.724Z" fill="#C8C8C8" fill-opacity="0.47"/>
<path d="M1063.43 838.527C1030.97 838.527 1004.63 812.307 1004.63 779.967C1004.63 747.627 1030.97 721.407 1063.43 721.407C1095.89 721.407 1122.23 747.627 1122.23 779.967C1122.23 812.307 1095.89 838.527 1063.43 838.527ZM1063.43 807.171C1078.52 807.171 1090.73 794.991 1090.73 779.961C1090.73 764.961 1078.52 752.781 1063.43 752.781C1048.34 752.781 1036.13 764.961 1036.13 779.961C1036.13 794.991 1048.34 807.171 1063.43 807.171Z" fill="#E8E8E8"/>
<mask id="mask9_105_255" style="mask-type:alpha" maskUnits="userSpaceOnUse" x="1004" y="721" width="119" height="118">
<path d="M1063.43 838.53C1030.97 838.53 1004.63 812.31 1004.63 779.97C1004.63 747.63 1030.97 721.41 1063.43 721.41C1095.89 721.41 1122.23 747.63 1122.23 779.97C1122.23 812.31 1095.89 838.53 1063.43 838.53ZM1063.43 807.17C1078.52 807.17 1090.73 794.99 1090.73 779.96C1090.73 764.96 1078.52 752.78 1063.43 752.78C1048.34 752.78 1036.13 764.96 1036.13 779.96C1036.13 794.99 1048.34 807.17 1063.43 807.17Z" fill="#FF0000"/>
<path d="M1063.43 838.527C1030.97 838.527 1004.63 812.307 1004.63 779.967C1004.63 747.627 1030.97 721.407 1063.43 721.407C1095.89 721.407 1122.23 747.627 1122.23 779.967C1122.23 812.307 1095.89 838.527 1063.43 838.527ZM1063.43 807.171C1078.52 807.171 1090.73 794.991 1090.73 779.961C1090.73 764.961 1078.52 752.781 1063.43 752.781C1048.34 752.781 1036.13 764.961 1036.13 779.961C1036.13 794.991 1048.34 807.171 1063.43 807.171Z" fill="#E8E8E8"/>
</mask>
<g mask="url(#mask9_105_255)">
<path d="M1063.48 753.31L1065.78 885.325L1105.66 827.587L1190.61 704.593L1135.36 684.865L1062.43 688.465L1063.48 753.31Z" fill="#00897B"/>
</g>
</g>
<path d="M1147.21 506.328C1162.09 475.008 1199.62 461.658 1230.97 476.538C1262.35 491.388 1275.7 528.858 1260.82 560.178C1247.32 588.558 1215.28 602.178 1186.06 593.448L1168.75 605.358L1167.04 584.058C1143.01 566.658 1134.01 534.108 1147.21 506.328Z" fill="#00897B"/>
<path d="M1200.98 561.865L1176.53 544.015L1184.96 532.495L1198.25 542.185L1224.65 508.555L1235.9 517.375L1200.98 561.865Z" fill="#FFFEFE"/>
<mask id="mask10_105_255" style="mask-type:luminance" maskUnits="userSpaceOnUse" x="366" y="719" width="217" height="232">
<path d="M366.533 719.618H582.533V950.618H366.533V719.618Z" fill="white"/>
</mask>
<g mask="url(#mask10_105_255)">
<path d="M365.533 767.912V939.332C365.533 947.222 371.563 953.612 379.033 953.612H568.033C575.503 953.612 581.533 947.222 581.533 939.332V767.912H365.533Z" fill="white"/>
<path d="M365.533 722.617H581.533V781.507H365.533V722.617Z" fill="#E8E8E8"/>
<path d="M392.533 745.264H406.033V758.854H392.533V745.264Z" fill="white"/>
<path d="M419.533 745.264H433.033V758.854H419.533V745.264Z" fill="white"/>
<path d="M547.783 758.854H453.283C449.563 758.854 446.533 755.794 446.533 752.044C446.533 748.294 449.563 745.264 453.283 745.264H547.783C551.503 745.264 554.533 748.294 554.533 752.044C554.533 755.794 551.503 758.854 547.783 758.854Z" fill="white"/>
<path d="M397.033 885.658H437.533V917.389H397.033V885.658Z" fill="#00897B"/>
<path d="M451.033 813.166H491.533V917.396H451.033V813.166Z" fill="#00897B"/>
<path d="M505.033 916.384H545.533V917.393H505.033V916.384Z" fill="#00897B"/>
<path d="M552.283 926.442H390.283C386.563 926.442 383.533 923.382 383.533 919.632C383.533 915.882 386.563 912.852 390.283 912.852H552.283C556.003 912.852 559.033 915.882 559.033 919.632C559.033 923.382 556.003 926.442 552.283 926.442Z" fill="#77959E"/>
</g>
</g>
</g>
<defs>
<linearGradient id="paint0_linear_105_255" x1="1275.24" y1="197.065" x2="602.98" y2="969.274" gradientUnits="userSpaceOnUse">
<stop stop-color="#F8F9FD"/>
<stop offset="0.18" stop-color="#ECEFF5"/>
<stop offset="0.35" stop-color="#E1E6ED"/>
<stop offset="0.68" stop-color="#E2E5EC"/>
<stop offset="1" stop-color="#E3E5EA"/>
</linearGradient>
<linearGradient id="paint1_linear_105_255" x1="1275.24" y1="197.065" x2="602.98" y2="969.274" gradientUnits="userSpaceOnUse">
<stop stop-color="#F8F9FD"/>
<stop offset="0.18" stop-color="#ECEFF5"/>
<stop offset="0.35" stop-color="#E1E6ED"/>
<stop offset="0.68" stop-color="#E2E5EC"/>
<stop offset="1" stop-color="#E3E5EA"/>
</linearGradient>
<clipPath id="clip0_105_255">
<rect width="1479" height="1134" fill="white" transform="translate(0.533203 0.11792)"/>
</clipPath>
</defs>
</svg>
